<svg width="18" height="4" viewBox="0 0 18 4" fill="none" xmlns="http://www.w3.org/2000/svg">
<path fill-rule="evenodd" clip-rule="evenodd" d="M2 4C0.89543 4 0 3.10457 0 2C0 0.89543 0.89543 0 2 0C3.10457 0 4 0.89543 4 2C4 3.10457 3.10457 4 2 4ZM8.99999 4C7.89542 4 6.99999 3.10457 6.99999 2C6.99999 0.89543 7.89542 0 8.99999 0C10.1046 0 11 0.89543 11 2C11 3.10457 10.1046 4 8.99999 4ZM14 2C14 3.10457 14.8954 4 16 4C17.1046 4 18 3.10457 18 2C18 0.89543 17.1046 0 16 0C14.8954 0 14 0.89543 14 2Z" fill="white"/>
</svg>
