<svg width="17" height="17" viewBox="0 0 17 17" fill="none" xmlns="http://www.w3.org/2000/svg">
<path fill-rule="evenodd" clip-rule="evenodd" d="M3.54167 0.708252H10.9184L14.875 4.66485V14.8749C14.875 15.6573 14.2407 16.2916 13.4583 16.2916H3.54167C2.75926 16.2916 2.125 15.6573 2.125 14.8749V2.12492C2.125 1.34252 2.75926 0.708252 3.54167 0.708252ZM9.20838 2.12492H3.54162V14.8749H13.4583V6.37492H10.625C9.84264 6.37492 9.20838 5.74066 9.20838 4.95825V2.12492ZM10.625 2.41841V4.95825H13.1649L10.625 2.41841ZM5.66662 12.0416V10.6249H9.91662V12.0416H5.66662ZM5.66662 7.79159V9.20825H11.3333V7.79159H5.66662Z" fill="#FE7630"/>
</svg>
