<svg width="17" height="17" viewBox="0 0 17 17" fill="none" xmlns="http://www.w3.org/2000/svg">
<path fill-rule="evenodd" clip-rule="evenodd" d="M9.27681 12.931L8.50033 13.609L7.72384 12.931C4.95046 10.5093 3.54199 8.36636 3.54199 6.37508C3.54199 3.55692 5.7403 1.41675 8.50033 1.41675C11.2604 1.41675 13.4587 3.55692 13.4587 6.37508C13.4587 8.36636 12.0502 10.5093 9.27681 12.931ZM4.02759 10.4858C4.31843 10.884 4.6424 11.289 4.99937 11.701C3.68029 11.9981 2.83366 12.4198 2.83366 12.7501C2.83366 13.3217 5.36888 14.1668 8.50033 14.1668C11.6318 14.1668 14.167 13.3217 14.167 12.7501C14.167 12.4198 13.3204 11.9981 12.0013 11.701C12.3583 11.289 12.6822 10.884 12.9731 10.4858C14.566 10.9692 15.5837 11.7445 15.5837 12.7501C15.5837 14.5257 12.4105 15.5834 8.50033 15.5834C4.59014 15.5834 1.41699 14.5257 1.41699 12.7501C1.41699 11.7445 2.43468 10.9692 4.02759 10.4858ZM8.50029 2.83341C10.4863 2.83341 12.042 4.34794 12.042 6.37508C12.042 7.82501 10.8893 9.60926 8.50029 11.7273C6.11131 9.60926 4.95862 7.82501 4.95862 6.37508C4.95862 4.34794 6.5143 2.83341 8.50029 2.83341ZM8.50036 4.25008C9.67396 4.25008 10.6254 5.20148 10.6254 6.37508C10.6254 7.54869 9.67396 8.50008 8.50036 8.50008C7.32675 8.50008 6.37536 7.54869 6.37536 6.37508C6.37536 5.20148 7.32675 4.25008 8.50036 4.25008ZM7.79199 6.37508C7.79199 5.98388 8.10912 5.66675 8.50033 5.66675C8.89153 5.66675 9.20866 5.98388 9.20866 6.37508C9.20866 6.76628 8.89153 7.08341 8.50033 7.08341C8.10912 7.08341 7.79199 6.76628 7.79199 6.37508Z" fill="#FE7630"/>
</svg>
