<svg width="17" height="17" viewBox="0 0 17 17" fill="none" xmlns="http://www.w3.org/2000/svg">
<path d="M15.2696 2.20821C15.1415 2.09759 14.9856 2.02412 14.8187 1.99577C14.6519 1.96742 14.4805 1.98527 14.323 2.04738L2.06729 6.86216C1.88037 6.93559 1.72225 7.06758 1.6166 7.23837C1.51094 7.40916 1.46343 7.60957 1.48118 7.80961C1.49892 8.00966 1.58096 8.19858 1.71503 8.3481C1.8491 8.49763 2.02798 8.59973 2.22491 8.63911L5.4447 9.28304V13.2803C5.44454 13.4642 5.49897 13.6441 5.6011 13.7971C5.70323 13.9501 5.84847 14.0693 6.01841 14.1397C6.18836 14.2101 6.37538 14.2285 6.55577 14.1925C6.73617 14.1565 6.90183 14.0678 7.03177 13.9376L8.84264 12.1268L11.551 14.5102C11.7195 14.6597 11.9368 14.7425 12.1621 14.7427C12.26 14.7426 12.3573 14.7272 12.4505 14.697C12.6042 14.6483 12.7423 14.5601 12.8513 14.4413C12.9602 14.3224 13.0361 14.1771 13.0714 14.0198L15.5691 3.12039C15.6072 2.95548 15.5994 2.78331 15.5466 2.62252C15.4938 2.46174 15.398 2.31846 15.2696 2.20821ZM2.27494 7.73919C2.27064 7.71038 2.27669 7.68098 2.29202 7.65621C2.30735 7.63144 2.33096 7.61291 2.35866 7.60391L12.6136 3.57515L5.75079 8.5316L2.38116 7.85767C2.3523 7.85368 2.32579 7.83959 2.30634 7.81789C2.28689 7.7962 2.27576 7.76831 2.27494 7.73919ZM6.46829 13.3742C6.44972 13.3928 6.42606 13.4054 6.4003 13.4105C6.37453 13.4157 6.34783 13.413 6.32356 13.403C6.29929 13.3929 6.27855 13.3759 6.26396 13.3541C6.24936 13.3322 6.24158 13.3066 6.24158 13.2803V9.83778L8.24323 11.5993L6.46829 13.3742ZM12.2946 13.8418C12.2895 13.8642 12.2786 13.885 12.2631 13.9019C12.2475 13.9189 12.2278 13.9315 12.2059 13.9386C12.184 13.9456 12.1607 13.9469 12.1382 13.9422C12.1156 13.9376 12.0947 13.9271 12.0774 13.9119L6.48113 8.98714L14.7808 2.99296L12.2946 13.8418Z" fill="#FE7630"/>
</svg>
