<svg width="16" height="16" viewBox="0 0 16 16" fill="none" xmlns="http://www.w3.org/2000/svg">
<path d="M0.336914 15.8719C0.552539 15.225 0.755664 14.6188 0.958789 14.0125C1.16191 13.4125 1.34316 12.8032 1.57441 12.2125C1.69316 11.9125 1.65566 11.6875 1.50566 11.4063C0.686914 9.88753 0.443164 8.25941 0.727539 6.56566C0.968164 5.13129 1.57754 3.86254 2.56191 2.78441C4.18379 1.01254 6.20879 0.162538 8.60254 0.262538C10.3557 0.334412 11.9057 0.975038 13.2275 2.13441C14.4588 3.21254 15.2619 4.55316 15.6338 6.14691C15.9338 7.43129 15.8994 8.70941 15.5307 9.97504C15.0619 11.5782 14.165 12.9 12.8307 13.9063C10.9775 15.3063 8.89941 15.7407 6.63379 15.3C5.95254 15.1688 5.30254 14.925 4.69004 14.5938C4.59004 14.5407 4.50566 14.5282 4.39629 14.5657C3.23379 14.9407 2.06816 15.3125 0.905664 15.6844C0.730664 15.7407 0.552539 15.8 0.336914 15.8719ZM2.31504 13.9125C2.37754 13.8969 2.40566 13.8907 2.43379 13.8813C3.16191 13.65 3.89004 13.4157 4.62129 13.1907C4.69004 13.1688 4.78379 13.1875 4.84941 13.2188C5.16504 13.375 5.46816 13.5625 5.79316 13.7C7.13066 14.2657 8.50879 14.3563 9.90254 13.9688C11.565 13.5032 12.84 12.5125 13.7119 11.0157C14.4588 9.73441 14.715 8.35004 14.4838 6.89379C14.19 5.04066 13.24 3.58441 11.6682 2.55004C10.3057 1.65629 8.80566 1.35316 7.20566 1.60629C5.82754 1.82504 4.64941 2.45316 3.67754 3.45941C2.84316 4.32191 2.28379 5.34066 2.04004 6.51254C1.69316 8.19066 1.94941 9.77816 2.88066 11.225C3.06816 11.5157 3.06191 11.7375 2.94941 12.0344C2.72129 12.6438 2.53066 13.2657 2.31504 13.9125Z" fill="#FE7630"/>
<path d="M12.1648 10.0564C12.1554 10.6596 11.871 11.1189 11.296 11.4064C10.7304 11.6877 10.1554 11.7596 9.5648 11.5283C9.03355 11.3189 8.49605 11.1158 7.98355 10.8627C7.30855 10.5283 6.75542 10.0283 6.24917 9.47518C5.6898 8.86268 5.2148 8.18143 4.82417 7.45331C4.54605 6.93768 4.3773 6.39081 4.43667 5.79081C4.49917 5.15331 4.79605 4.64393 5.29605 4.25956C5.39605 4.18456 5.54605 4.15018 5.67417 4.13768C5.8398 4.12518 6.00542 4.15018 6.17105 4.16268C6.30855 4.17518 6.38355 4.27206 6.43042 4.38456C6.5523 4.68456 6.66167 4.98456 6.7773 5.28768C6.85542 5.49081 6.9148 5.70331 7.00855 5.90018C7.12417 6.14393 7.0523 6.34706 6.9023 6.53456C6.77417 6.69393 6.6398 6.84706 6.49292 6.98456C6.37105 7.10018 6.34917 7.21893 6.43042 7.35956C6.7898 8.00018 7.2273 8.57518 7.80542 9.04081C8.18667 9.34706 8.60855 9.57518 9.04605 9.78768C9.17417 9.85018 9.29917 9.84081 9.39917 9.72518C9.6148 9.47831 9.83355 9.23456 10.046 8.98456C10.1835 8.82518 10.2523 8.79393 10.4367 8.88768C10.971 9.15643 11.4992 9.43456 12.0304 9.71268C12.1554 9.78143 12.1867 9.89393 12.1648 10.0564Z" fill="#FE7630"/>
</svg>
