<svg width="38" height="38" viewBox="0 0 38 38" fill="none" xmlns="http://www.w3.org/2000/svg">
<path d="M16.5576 15.2605V22.197L22.9513 18.7589L16.5576 15.2605Z" fill="#FE7630"/>
<path d="M28.4698 0H9.5C4.28254 0 0 4.28254 0 9.53016V28.5C0 33.7175 4.28254 38 9.5 38H28.4698C33.7175 38 38 33.7175 38 28.4698V9.53016C38 4.28254 33.7175 0 28.4698 0ZM30.7619 19.9349C30.7619 21.9254 30.581 23.946 30.581 23.946C30.581 23.946 30.3698 25.6349 29.6762 26.3889C28.7714 27.3841 27.7762 27.3841 27.3238 27.4444C24.0063 27.6857 19.0302 27.7159 19.0302 27.7159C19.0302 27.7159 12.8476 27.6254 10.9476 27.4444C10.4349 27.354 9.22857 27.3841 8.32381 26.3889C7.6 25.6349 7.41905 23.946 7.41905 23.946C7.41905 23.946 7.2381 21.9254 7.2381 19.9349V18.0651C7.2381 16.0746 7.41905 14.054 7.41905 14.054C7.41905 14.054 7.63016 12.3651 8.32381 11.6111C9.22857 10.6159 10.2238 10.5857 10.6762 10.5254C14.0238 10.2841 19 10.254 19 10.254C19 10.254 23.9762 10.2841 27.2937 10.5254C27.746 10.5857 28.7714 10.6159 29.6762 11.581C30.4 12.3349 30.581 14.054 30.581 14.054C30.581 14.054 30.7619 16.0746 30.7619 18.0651V19.9349Z" fill="#FE7630"/>
</svg>
