<svg width="38" height="38" viewBox="0 0 38 38" fill="none" xmlns="http://www.w3.org/2000/svg">
<circle cx="19" cy="19" r="19" fill="#FE7630"/>
<g clip-path="url(#clip0_347_75)">
<path d="M25.4256 19.9423C25.0861 19.4931 25.1833 19.2933 25.4256 18.8918C25.43 18.8872 28.2326 14.83 28.5214 13.4541L28.5231 13.4532C28.6666 12.9518 28.5231 12.5833 27.8293 12.5833H25.5333C24.9488 12.5833 24.6793 12.8995 24.5349 13.2533C24.5349 13.2533 23.3659 16.1848 21.7121 18.0851C21.1784 18.6342 20.9316 18.8102 20.6403 18.8102C20.4968 18.8102 20.2736 18.6342 20.2736 18.1328V13.4532C20.2736 12.8518 20.11 12.5833 19.6261 12.5833H16.0159C15.6493 12.5833 15.4314 12.8638 15.4314 13.125C15.4314 13.6952 16.2583 13.8263 16.344 15.4304V18.911C16.344 19.6737 16.2119 19.8139 15.9188 19.8139C15.1383 19.8139 13.2439 16.8705 12.1213 13.5018C11.8946 12.8482 11.6733 12.5842 11.0844 12.5842H8.7875C8.13212 12.5842 8 12.9004 8 13.2543C8 13.8794 8.7805 16.9878 11.6295 21.0945C13.5283 23.8977 16.2023 25.4166 18.6348 25.4166C20.0969 25.4166 20.2754 25.0793 20.2754 24.499C20.2754 21.8205 20.1433 21.5675 20.8756 21.5675C21.2151 21.5675 21.7996 21.7435 23.1646 23.0956C24.7248 24.6988 24.9811 25.4166 25.8544 25.4166H28.1504C28.8049 25.4166 29.1365 25.0793 28.9458 24.4138C28.5091 23.014 25.5586 20.1348 25.4256 19.9423V19.9423Z" fill="white"/>
</g>
<defs>
<clipPath id="clip0_347_75">
<rect width="21" height="22" fill="white" transform="translate(8 8)"/>
</clipPath>
</defs>
</svg>
