<svg width="14" height="14" viewBox="0 0 14 14" fill="none" xmlns="http://www.w3.org/2000/svg">
<path fill-rule="evenodd" clip-rule="evenodd" d="M6.33321 4.86394C6.63544 4.45665 6.74381 4.0274 6.402 3.64851C5.63494 2.57519 5.11908 1.91145 4.7955 1.59181C4.18034 0.984132 3.16839 1.06633 2.63562 1.59129C2.34946 1.87325 2.25259 1.97008 1.95877 2.26852C0.322137 3.90603 1.32024 7.36766 3.97355 10.0236C6.62627 12.6789 10.0876 13.6775 11.7276 12.0366C11.9988 11.7752 12.2283 11.5455 12.4094 11.3542C12.9315 10.8023 13.0107 9.83499 12.4059 9.20658C12.0959 8.88439 11.4629 8.39343 10.3445 7.59337C10.0019 7.28706 9.59573 7.35345 9.22335 7.59775C9.04423 7.71527 8.91387 7.83414 8.66773 8.08053L8.22075 8.52775C8.16188 8.58666 7.36248 8.18632 6.58649 7.40956C5.81008 6.63239 5.41002 5.83295 5.46861 5.77436L5.9159 5.32683C5.99399 5.24865 6.03133 5.21081 6.07921 5.16049C6.17896 5.05565 6.26155 4.9605 6.33321 4.86394ZM9.0453 9.35272L9.49236 8.9054C9.62783 8.76981 9.71562 8.68643 9.78704 8.62895C10.7668 9.33256 11.3343 9.77499 11.5661 10.0158C11.7052 10.1604 11.6836 10.4243 11.5626 10.5521C11.3952 10.7291 11.1777 10.9467 10.9108 11.2041C9.85028 12.2651 7.05623 11.459 4.79828 9.19881C2.53962 6.93793 1.73388 4.14346 2.7864 3.09037C3.07904 2.79315 3.17175 2.70048 3.45383 2.42255C3.55959 2.31834 3.84767 2.29494 3.97633 2.42203C4.22545 2.66812 4.68757 3.25983 5.36737 4.20678C5.33217 4.25047 5.28822 4.29984 5.23473 4.35606C5.19547 4.39732 5.16276 4.43047 5.09126 4.50205L4.64441 4.94914C3.88424 5.70925 4.53163 7.00292 5.76185 8.23435C6.99123 9.46494 8.28538 10.113 9.0453 9.35272Z" fill="#FE7630"/>
</svg>
